<?xml version="1.0" encoding="UTF-8" standalone="no"?>
<!-- Created with Inkscape (http://www.inkscape.org/) -->

<svg
   xmlns:dc="http://purl.org/dc/elements/1.1/"
   xmlns:cc="http://creativecommons.org/ns#"
   xmlns:rdf="http://www.w3.org/1999/02/22-rdf-syntax-ns#"
   xmlns:svg="http://www.w3.org/2000/svg"
   xmlns="http://www.w3.org/2000/svg"
   xmlns:sodipodi="http://sodipodi.sourceforge.net/DTD/sodipodi-0.dtd"
   xmlns:inkscape="http://www.inkscape.org/namespaces/inkscape"
   width="43.699032mm"
   height="22.141981mm"
   viewBox="0 0 43.699032 22.141981"
   version="1.1"
   id="svg8"
   inkscape:version="0.92.1 r15371"
   sodipodi:docname="logout.svg">
  <defs
     id="defs2" />
  <sodipodi:namedview
     id="base"
     pagecolor="#ffffff"
     bordercolor="#666666"
     borderopacity="1.0"
     inkscape:pageopacity="0.0"
     inkscape:pageshadow="2"
     inkscape:zoom="0.35"
     inkscape:cx="111.15228"
     inkscape:cy="153.27168"
     inkscape:document-units="mm"
     inkscape:current-layer="layer1"
     showgrid="false"
     fit-margin-top="0"
     fit-margin-left="0"
     fit-margin-right="0"
     fit-margin-bottom="0"
     inkscape:window-width="1920"
     inkscape:window-height="1018"
     inkscape:window-x="-8"
     inkscape:window-y="22"
     inkscape:window-maximized="1" />
  <metadata
     id="metadata5">
    <rdf:RDF>
      <cc:Work
         rdf:about="">
        <dc:format>image/svg+xml</dc:format>
        <dc:type
           rdf:resource="http://purl.org/dc/dcmitype/StillImage" />
        <dc:title></dc:title>
      </cc:Work>
    </rdf:RDF>
  </metadata>
  <g
     inkscape:label="Layer 1"
     inkscape:groupmode="layer"
     id="layer1"
     transform="translate(-76.424293,-167.24449)">
    <g
       transform="translate(-1.5118832,52.160556)"
       id="layer1-0"
       inkscape:label="Layer 1">
      <text
         transform="scale(1.0147409,0.98547324)"
         id="text3699"
         y="158.19756"
         x="64.494141"
         style="font-style:normal;font-weight:normal;font-size:5.85659504px;line-height:1.25;font-family:sans-serif;letter-spacing:0px;word-spacing:0px;fill:#000000;fill-opacity:1;stroke:none;stroke-width:0.13726394"
         xml:space="preserve"><tspan
           style="stroke-width:0.13726394"
           y="163.37927"
           x="64.494141"
           id="tspan3697"
           sodipodi:role="line" /></text>
      <path
         inkscape:connector-curvature="0"
         id="path3695"
         d="m 93.947593,137.20489 c -0.05556,-0.0226 -0.623795,-0.10179 -1.262747,-0.17599 -2.942657,-0.34171 -4.502084,-0.91559 -6.458645,-2.37681 -1.575238,-1.17643 -2.916118,-2.89231 -3.661668,-4.68571 -0.697758,-1.67844 -0.918884,-3.50149 -0.680503,-5.61035 0.06011,-0.53182 0.110925,-1.55745 0.112911,-2.27919 0.0041,-1.4645 -0.1372,-2.10665 -0.64765,-2.94479 -0.417135,-0.68492 -0.928407,-1.06891 -2.261355,-1.6984 l -1.15176,-0.54391 0.368187,-0.21337 c 0.27208,-0.15767 0.702397,-0.23397 1.648582,-0.29231 1.257258,-0.0775 1.298525,-0.0887 2.283483,-0.61961 1.756361,-0.94668 3.192179,-0.90816 4.892344,0.13124 0.57669,0.35256 1.111667,0.83967 2.360257,2.14906 0.732752,0.76844 1.217083,1.16938 1.826395,1.51194 0.456072,0.25641 0.879545,0.46619 0.94106,0.46619 0.116789,0 1.553902,0.50056 2.852183,0.99345 0.416351,0.15807 1.302803,0.58418 1.969887,0.9469 1.909378,1.03823 2.561054,1.33732 4.445506,2.04036 1.03086,0.38457 1.36665,0.53803 2.576,1.17722 1.47218,0.7781 2.32627,1.06107 4.04079,1.33878 2.94511,0.47701 3.6182,0.6561 4.10133,1.09125 l 0.26496,0.23864 -0.69311,0.1441 c -1.43528,0.29838 -2.15789,0.49174 -2.15789,0.5774 0,0.0487 0.71598,0.122 1.59106,0.16298 0.87508,0.041 2.38659,0.17858 3.3589,0.30582 2.74098,0.35871 3.69069,0.46392 5.00047,0.55399 0.66673,0.0459 1.31348,0.14602 1.43722,0.22259 0.31824,0.19693 0.4634,0.55492 0.37098,0.91486 -0.0428,0.16674 -0.0808,0.42881 -0.0844,0.58237 -0.005,0.19997 -0.0782,0.29913 -0.25905,0.34939 l -0.25255,0.0702 0.30249,0.0877 c 0.36243,0.10506 0.57457,0.28572 0.49859,0.4246 -0.0735,0.13432 -2.50179,0.12978 -3.35773,-0.006 -0.73643,-0.11707 -2.66307,-0.35019 -5.27237,-0.63795 -0.91676,-0.10112 -2.16687,-0.19299 -2.77804,-0.20418 -1.00955,-0.0185 -1.1944,0.0123 -2.02039,0.3366 -0.52403,0.20574 -1.33712,0.41465 -1.91937,0.49315 -1.20027,0.16181 -2.32696,0.4307 -2.67703,0.63888 -0.1389,0.0826 -0.57076,0.44242 -0.95968,0.79962 -1.28165,1.17709 -2.79731,2.18716 -4.394356,2.92851 -0.416704,0.19344 -0.80478,0.39249 -0.862393,0.44234 -0.105367,0.0912 -3.242315,0.24544 -3.430938,0.16873 z"
         style="fill:#000080;stroke-width:0.10736494" />
      <text
         transform="scale(0.94089948,1.0628128)"
         id="text3703"
         y="121.22164"
         x="90.244308"
         style="font-style:normal;font-weight:normal;font-size:4.53486347px;line-height:1.25;font-family:sans-serif;letter-spacing:0px;word-spacing:0px;fill:#000000;fill-opacity:1;stroke:none;stroke-width:0.10628586"
         xml:space="preserve"><tspan
           style="fill:#ffffff;stroke-width:0.10628586"
           y="121.22164"
           x="90.244308"
           id="tspan3701"
           sodipodi:role="line">Logout</tspan></text>
    </g>
  </g>
</svg>
