<?xml version="1.0" encoding="UTF-8" standalone="no"?>
<!-- Created with Inkscape (http://www.inkscape.org/) -->

<svg
   xmlns:dc="http://purl.org/dc/elements/1.1/"
   xmlns:cc="http://creativecommons.org/ns#"
   xmlns:rdf="http://www.w3.org/1999/02/22-rdf-syntax-ns#"
   xmlns:svg="http://www.w3.org/2000/svg"
   xmlns="http://www.w3.org/2000/svg"
   xmlns:sodipodi="http://sodipodi.sourceforge.net/DTD/sodipodi-0.dtd"
   xmlns:inkscape="http://www.inkscape.org/namespaces/inkscape"
   width="43.699078mm"
   height="22.141666mm"
   viewBox="0 0 43.699078 22.141666"
   version="1.1"
   id="svg32"
   inkscape:version="0.92.1 r15371"
   sodipodi:docname="signin.svg">
  <defs
     id="defs26" />
  <sodipodi:namedview
     id="base"
     pagecolor="#ffffff"
     bordercolor="#666666"
     borderopacity="1.0"
     inkscape:pageopacity="0.0"
     inkscape:pageshadow="2"
     inkscape:zoom="0.35"
     inkscape:cx="302.58093"
     inkscape:cy="70.41395"
     inkscape:document-units="mm"
     inkscape:current-layer="layer1"
     showgrid="false"
     fit-margin-top="0"
     fit-margin-left="0"
     fit-margin-right="0"
     fit-margin-bottom="0"
     inkscape:window-width="1920"
     inkscape:window-height="1018"
     inkscape:window-x="-8"
     inkscape:window-y="22"
     inkscape:window-maximized="1" />
  <metadata
     id="metadata29">
    <rdf:RDF>
      <cc:Work
         rdf:about="">
        <dc:format>image/svg+xml</dc:format>
        <dc:type
           rdf:resource="http://purl.org/dc/dcmitype/StillImage" />
        <dc:title></dc:title>
      </cc:Work>
    </rdf:RDF>
  </metadata>
  <g
     inkscape:label="Layer 1"
     inkscape:groupmode="layer"
     id="layer1"
     transform="translate(-25.775462,-145.32202)">
    <g
       transform="matrix(0.52644035,0,0,0.5112565,-12.464242,53.151144)"
       id="layer1-2"
       inkscape:label="Layer 1">
      <text
         id="text3699"
         y="260.11682"
         x="48.910324"
         style="font-style:normal;font-weight:normal;font-size:11.28888893px;line-height:1.25;font-family:sans-serif;letter-spacing:0px;word-spacing:0px;fill:#000000;fill-opacity:1;stroke:none;stroke-width:0.26458332"
         xml:space="preserve"><tspan
           style="stroke-width:0.26458332"
           y="270.10483"
           x="48.910324"
           id="tspan3697"
           sodipodi:role="line" /></text>
      <g
         id="g3708">
        <path
           style="fill:#000080;stroke-width:0.20695145"
           d="m 103.05274,223.55088 c -0.10554,-0.0442 -1.18493,-0.1991 -2.39865,-0.34423 -5.589726,-0.66838 -8.551936,-1.79086 -12.268523,-4.64895 -2.992244,-2.30107 -5.539312,-5.65726 -6.955522,-9.16509 -1.325428,-3.28297 -1.745468,-6.84879 -1.29265,-10.97366 0.11419,-1.04021 0.210707,-3.04631 0.214479,-4.458 0.0077,-2.86452 -0.260617,-4.12055 -1.230244,-5.75992 -0.792368,-1.33967 -1.763555,-2.09075 -4.295558,-3.322 l -2.187826,-1.06388 0.69939,-0.41734 c 0.51683,-0.3084 1.334239,-0.45764 3.131566,-0.57175 2.388224,-0.15162 2.466612,-0.17352 4.33759,-1.21194 3.336297,-1.85167 6.063705,-1.77633 9.293255,0.25671 1.095452,0.6896 2.111667,1.64237 4.483427,4.20348 1.3919,1.50305 2.31191,2.28727 3.46933,2.95731 0.86633,0.50152 1.67074,0.91185 1.78759,0.91185 0.221846,0 2.951716,0.97908 5.417866,1.94316 0.79088,0.30917 2.47474,1.14262 3.7419,1.8521 3.62696,2.03073 4.86485,2.61575 8.44447,3.99086 1.95817,0.75222 2.59602,1.05238 4.89324,2.30261 2.79647,1.52194 4.41886,2.07542 7.67567,2.6186 5.5944,0.93302 6.87296,1.28331 7.7907,2.13446 l 0.50329,0.46677 -1.31659,0.28184 c -2.72638,0.58363 -4.09902,0.96183 -4.09902,1.12939 0,0.0952 1.36004,0.23863 3.0223,0.31877 1.66226,0.0801 4.53344,0.34931 6.3804,0.59819 5.20663,0.70161 7.01064,0.90741 9.49865,1.08358 1.26648,0.0897 2.49501,0.2856 2.73006,0.43538 0.60451,0.38518 0.88026,1.0854 0.70469,1.78942 -0.0813,0.32614 -0.15345,0.83874 -0.16024,1.13911 -0.009,0.39112 -0.14851,0.58509 -0.49208,0.68339 l -0.47973,0.13728 0.5746,0.17152 c 0.68846,0.20551 1.09143,0.55887 0.9471,0.8305 -0.1396,0.26273 -4.75228,0.25386 -6.37819,-0.0123 -1.39887,-0.22897 -5.05863,-0.68495 -10.01513,-1.24781 -1.74142,-0.19777 -4.11608,-0.37748 -5.27702,-0.39937 -1.9177,-0.0362 -2.26882,0.024 -3.83784,0.65839 -0.99542,0.40242 -2.53992,0.81104 -3.64594,0.96458 -2.27996,0.3165 -4.42017,0.84244 -5.08514,1.24962 -0.26385,0.16156 -1.08419,0.86537 -1.82297,1.56404 -2.43455,2.30234 -5.31363,4.27801 -8.3473,5.72807 -0.79155,0.37835 -1.52872,0.76769 -1.63816,0.86519 -0.20015,0.17832 -6.15894,0.48007 -6.51724,0.33003 z"
           id="path3695"
           inkscape:connector-curvature="0" />
        <text
           xml:space="preserve"
           style="font-style:normal;font-weight:normal;font-size:8.74118328px;line-height:1.25;font-family:sans-serif;letter-spacing:0px;word-spacing:0px;fill:#000000;fill-opacity:1;stroke:none;stroke-width:0.20487148"
           x="92.627319"
           y="192.10512"
           id="text3703"
           transform="scale(0.92723126,1.0784796)"><tspan
             sodipodi:role="line"
             id="tspan3701"
             x="92.627319"
             y="192.10512"
             style="fill:#ffffff;stroke-width:0.20487148">Sign In</tspan></text>
      </g>
    </g>
  </g>
</svg>
